# xmcd
#
# Track frame offsets:
#	150
#	15706
#	35791
#	52801
#	66113
#	81357
#	106524
#	123153
#	137341
#	153566
#	167468
#	184693
#	196261
#	215635
#	228826
#
# Disc length: 3250 seconds
#
# Revision: 0
# Processed by: cddbd v1.5.2PL0 Copyright (c) Steve Scherf et al.
# Submitted via: EasyCDDAExtractor 10.0.2.1
#
DISCID=bb0cb00f
DTITLE=Victor and Leo - Ao Vivo
DYEAR=2007
DGENRE=Sertanejo
TTITLE0=Sinto Falta de Você
TTITLE1=Quem de Nós Dois
TTITLE2=Fada
TTITLE3=Telefone Mudo
TTITLE4=Jogo da Vida
TTITLE5=Dias Apaixonados/Fazenda São Francisco
TTITLE6=O Granfino e o Caipira
TTITLE7=Vida Boa
TTITLE8=Amigo Apaixonado
TTITLE9=Arapuca
TTITLE10=Lembranças de amor
TTITLE11=Chuva de Bruxaria
TTITLE12=Meu Eu em Você
TTITLE13=Cuidador de Fogo
TTITLE14=Milonga para as Missões
EXTD=
EXTT0=
EXTT1=
EXTT2=
EXTT3=
EXTT4=
EXTT5=
EXTT6=
EXTT7=
EXTT8=
EXTT9=
EXTT10=
EXTT11=
EXTT12=
EXTT13=
EXTT14=
PLAYORDER=
